<svg width="25" height="25" viewBox="0 0 25 25" fill="none" xmlns="http://www.w3.org/2000/svg">
<path d="M3.67354 5.05542V13.3853H3.91215M3.67354 5.05542L0.619385 13.6239V13.8625V14.9086V15.1472H0.857991H1.90786V15.3858M3.67354 5.05542C3.67265 4.73273 3.73594 4.41308 3.85974 4.11496C3.98353 3.81684 4.16538 3.54617 4.39475 3.31863M3.67354 5.05542L4.39475 3.31863M3.91215 13.3853V13.6239H21.9985H23.2869H23.5256V13.8625V14.9086V15.1472H23.2869H22.2371V15.3858M3.91215 13.3853H21.9985H23.5256H23.7642V13.6239V15.1472V15.3858H23.5256H22.2371M3.91215 13.3853L3.91215 5.05542L3.91215 5.05476C3.91135 4.76372 3.96843 4.47539 4.0801 4.20646C4.19177 3.93754 4.35583 3.69334 4.5628 3.48802L4.56326 3.48756L4.58223 3.46864M22.2371 15.3858H21.9985V16.6086C21.9984 16.7314 21.9786 16.8534 21.9396 16.9699L20.5191 21.2208C20.4433 21.4485 20.2975 21.6465 20.1024 21.7867C19.9074 21.9269 19.673 22.0023 19.4325 22.0021M22.2371 15.3858V16.6086V16.6087C22.237 16.7572 22.213 16.9048 22.1659 17.0456L2.14646 5.05542L1.90786 5.05607C1.90786 5.05597 1.90786 5.05586 1.90786 5.05576C1.90639 4.5014 2.01514 3.95226 2.2278 3.44013C2.44046 2.928 2.75281 2.46307 3.14674 2.07221L3.1465 2.07244L3.31501 2.24137M19.4325 22.0021H18.6924L18.7642 22.2407M19.4325 22.0021V22.2407H19.4323M19.4325 22.0021L19.4323 22.2407M18.7642 22.2407H18.515L18.9441 23.6676H19.0159V23.9062L18.7874 23.9749L18.7667 23.9062H17.422L16.8494 22.0021M18.7642 22.2407L19.2444 23.8374L19.3368 24.1448H19.0159H17.422H17.2446L17.1935 23.9749L16.672 22.2407M18.7642 22.2407H19.4323M16.8494 22.0021H6.91858M16.8494 22.0021L16.6209 22.0708L16.672 22.2407M16.8494 22.0021V22.2407H16.672M6.91858 22.0021L6.36182 23.9062H5.01972L5.00015 23.9731L4.77113 23.9062V23.6676H4.84089L5.25808 22.2407H5.00949M6.91858 22.0021V22.2407H7.09741M6.91858 22.0021L7.1476 22.069L7.09741 22.2407M5.00949 22.2407L5.07925 22.0021H4.71224M5.00949 22.2407H4.71243M5.00949 22.2407L4.54211 23.8392L4.45277 24.1448H4.77113H6.36182H6.54065L6.59083 23.9731L7.09741 22.2407M4.71224 22.0021C4.47182 22.0022 4.23746 21.9269 4.04243 21.7866C3.8474 21.6464 3.70163 21.4484 3.62582 21.2208L2.20526 16.9699C2.16628 16.8534 2.14643 16.7314 2.14646 16.6086V15.3858H1.90786M4.71224 22.0021V22.2407H4.71243M4.71224 22.0021L4.71243 22.2407M1.90786 15.3858H0.619385H0.380779V15.1472V13.6239V13.3853H0.619385H1.90786L20.7455 21.2962C20.6538 21.5716 20.4775 21.8109 20.2417 21.9804C20.006 22.1499 19.7227 22.2409 19.4323 22.2407M1.90786 15.3858V16.6086C1.90786 16.6086 1.90786 16.6086 1.90786 16.6086C1.90782 16.7571 1.93183 16.9047 1.97895 17.0455C1.97896 17.0456 1.97897 17.0456 1.97898 17.0456L3.39944 21.2962C3.39945 21.2963 3.39946 21.2963 3.39948 21.2963C3.49118 21.5716 3.66744 21.8109 3.90313 21.9804C4.13883 22.1498 4.42201 22.2409 4.71243 22.2407M7.09741 22.2407H16.672M4.58223 3.46864C4.90688 3.14526 5.32378 2.92968 5.77601 2.85146C6.14356 2.78788 6.51981 2.81756 6.87061 2.93587M4.58223 3.46864L4.41384 3.29959M4.58223 3.46864L4.58235 3.46852L4.41384 3.29959M6.87061 2.93587C6.50796 3.6445 6.36416 4.44707 6.46119 5.24111C6.56949 6.12747 6.97165 6.9522 7.60363 7.58428L7.60385 7.5845L7.9571 7.93687M6.87061 2.93587C6.94615 2.96134 7.0205 2.99092 7.09333 3.02457C6.74473 3.6958 6.60589 4.4581 6.69803 5.21217C6.79987 6.04557 7.17801 6.82112 7.77236 7.41557M6.87061 2.93587C6.9073 2.86419 6.94622 2.79347 6.98736 2.72382C6.58761 2.58124 6.15631 2.54352 5.73534 2.61634C5.23482 2.70292 4.7733 2.94154 4.41384 3.29959M7.9571 7.93687L7.16452 8.72752L6.99518 8.89645L7.16453 9.06538L8.24427 10.1424L8.41278 10.3105L8.58129 10.1424L9.54321 9.18291L14.8731 3.86629L14.7046 3.69736M7.9571 7.93687L8.12603 8.10539L7.50196 8.72793L7.50155 8.72752L7.33304 8.89645L7.50155 9.06537L7.50197 9.06496M7.9571 7.93687L8.12603 7.76836L7.77236 7.41557M14.7046 3.69736L14.8731 3.86629L15.8351 2.90675L16.0044 2.73782L15.8351 2.5689L14.7553 1.49178L14.5868 1.3237L14.4182 1.49178L13.6248 2.28323M14.7046 3.69736L9.37469 9.01398L8.41278 9.97351M14.7046 3.69736L15.4976 2.90634L15.498 2.90675L15.6665 2.73782L15.498 2.5689L15.4976 2.56931L14.5868 1.66071M13.6248 2.28323L13.2707 1.93002L13.2705 1.92978C12.6052 1.268 11.7283 0.860137 10.7927 0.777133C9.90889 0.698731 9.02549 0.914849 8.27978 1.38928M13.6248 2.28323L13.7933 2.45132L13.6248 2.62025M13.6248 2.28323L13.4563 2.45131L13.6248 2.62025M8.27978 1.38928C7.49751 0.935756 6.58864 0.743842 5.68679 0.844136C4.73329 0.950175 3.8442 1.37657 3.1656 2.05339L3.16559 2.0534L3.14696 2.07198L3.31501 2.24137M8.27978 1.38928C8.32459 1.41526 8.36898 1.44209 8.41293 1.46978L8.28574 1.67166M8.27978 1.38928C8.23602 1.41712 8.19273 1.44585 8.14995 1.47547L8.28574 1.67166M3.31501 2.24137L3.3341 2.22233M3.31501 2.24137L3.3341 2.22233M3.3341 2.22233C3.97436 1.58374 4.81333 1.18135 5.71317 1.08128C6.61301 0.98121 7.52021 1.1894 8.28574 1.67166M3.3341 2.22233L13.6248 2.62025M8.28574 1.67166C9.01172 1.16918 9.89143 0.936725 10.7716 1.01481C11.6517 1.09289 12.4765 1.47655 13.1022 2.09895L13.6248 2.62025M13.6248 2.62025L14.5868 1.66071M13.6248 2.62025L14.5868 1.66071M14.5868 1.66071L8.41278 9.97351M8.41278 9.97351L7.50197 9.06496M8.41278 9.97351L7.50197 9.06496M4.39475 3.31863L4.41384 3.29959M4.39475 3.31863L7.77236 7.41557M7.77236 7.41557L7.50197 9.06496M9.02081 3.34493C9.39672 2.9709 9.90612 2.76073 10.4373 2.76073C10.9686 2.76073 11.4781 2.97095 11.854 3.34506C11.854 3.3451 11.854 3.34513 11.8541 3.34517L12.2071 3.69734L9.37482 6.52256L9.02094 6.16963C9.02094 6.16962 9.02093 6.16961 9.02092 6.1696C8.64586 5.79461 8.43534 5.28666 8.43534 4.75721C8.43534 4.22781 8.64582 3.71991 9.02081 3.34493ZM3.91215 16.5079V15.3858H20.2328V16.5079L18.9857 20.2402H5.15924L3.91215 16.5079Z" fill="black" stroke="black" stroke-width="0.477212"/>
</svg>
