<svg width="22" height="28" viewBox="0 0 22 28" fill="none" xmlns="http://www.w3.org/2000/svg">
<path d="M11.2132 15.2C13.1213 15.2 14.6682 13.5882 14.6682 11.6C14.6682 9.6118 13.1213 8.00002 11.2132 8.00002C9.30513 8.00002 7.7583 9.6118 7.7583 11.6C7.7583 13.5882 9.30513 15.2 11.2132 15.2Z" stroke="black" stroke-width="2.30329" stroke-linecap="round" stroke-linejoin="round"/>
<path d="M11.2132 2C8.76968 2 6.42628 3.01143 4.69847 4.81178C2.97067 6.61212 2 9.05392 2 11.6C2 13.8704 2.46296 15.356 3.72747 17L11.2132 26L18.6989 17C19.9634 15.356 20.4263 13.8704 20.4263 11.6C20.4263 9.05392 19.4557 6.61212 17.7279 4.81178C16.0001 3.01143 13.6567 2 11.2132 2V2Z" stroke="black" stroke-width="2.30329" stroke-linecap="round" stroke-linejoin="round"/>
</svg>
