<svg width="31" height="31" viewBox="0 0 31 31" fill="none" xmlns="http://www.w3.org/2000/svg">
<path d="M16.6519 1.28903C16.5066 1.13563 16.3296 1.01307 16.1322 0.929197C15.9347 0.845327 15.7212 0.802002 15.5053 0.802002C15.2893 0.802002 15.0758 0.845327 14.8783 0.929197C14.6809 1.01307 14.5039 1.13563 14.3586 1.28903L0.413414 16.165C0.207779 16.3778 0.071514 16.6438 0.0214144 16.9301C-0.0286852 17.2164 0.00957082 17.5105 0.131467 17.7762C0.253363 18.0419 0.453571 18.2675 0.707413 18.4253C0.961255 18.5831 1.25764 18.6661 1.56002 18.6641H4.65896V29.0773C4.65896 29.4718 4.82221 29.8502 5.11279 30.1292C5.40337 30.4081 5.79749 30.5649 6.20843 30.5649H24.8021C25.213 30.5649 25.6071 30.4081 25.8977 30.1292C26.1883 29.8502 26.3515 29.4718 26.3515 29.0773V18.6641H29.4505C29.8614 18.6641 30.2555 18.5074 30.5461 18.2284C30.8367 17.9494 31 17.5711 31 17.1765C31.0028 16.8027 30.859 16.4416 30.5971 16.165L16.6519 1.28903Z" fill="#E05E36"/>
</svg>
