<svg width="29" height="16" viewBox="0 0 29 16" fill="none" xmlns="http://www.w3.org/2000/svg">
<path d="M27.1029 7.77526C27.7756 7.77526 28.32 9.48289 28.32 11.59C28.32 13.6965 27.7756 15.4041 27.1029 15.4041H1.94793C1.27662 15.4041 0.729858 13.6965 0.729858 11.59C0.729858 9.48289 1.27662 7.77526 1.94793 7.77526H27.1029ZM8.28018 2.51939C8.71442 4.09764 7.98925 5.7108 6.66009 6.12359C5.33334 6.53894 3.90704 5.59785 3.47281 4.02063C3.0405 2.44648 3.76759 0.830243 5.09482 0.411293C6.42254 -0.00508904 7.84787 0.93806 8.28018 2.51426M8.7274 5.967C8.7274 5.967 14.0556 -3.92863 25.7997 5.967H8.7274Z" fill="black"/>
</svg>
