<svg width="22" height="23" viewBox="0 0 22 23" fill="none" xmlns="http://www.w3.org/2000/svg">
<path d="M4.84433 0C3.70743 0 2.61708 0.490206 1.81317 1.36278C1.00925 2.23535 0.557617 3.41881 0.557617 4.65281V8.94772C0.557617 9.23249 0.661841 9.5056 0.847359 9.70696C1.03288 9.90832 1.2845 10.0214 1.54686 10.0214C1.80922 10.0214 2.06084 9.90832 2.24636 9.70696C2.43188 9.5056 2.5361 9.23249 2.5361 8.94772V4.65281C2.5361 3.26986 3.57019 2.14745 4.84433 2.14745H8.8013C9.06367 2.14745 9.31528 2.03433 9.5008 1.83297C9.68632 1.6316 9.79055 1.3585 9.79055 1.07373C9.79055 0.788957 9.68632 0.51585 9.5008 0.314487C9.31528 0.113124 9.06367 6.00108e-09 8.8013 0H4.84433ZM13.4178 0C13.1554 6.00108e-09 12.9038 0.113124 12.7183 0.314487C12.5328 0.51585 12.4285 0.788957 12.4285 1.07373C12.4285 1.3585 12.5328 1.6316 12.7183 1.83297C12.9038 2.03433 13.1554 2.14745 13.4178 2.14745H17.3747C18.6489 2.14745 19.683 3.26986 19.683 4.65281V8.94772C19.683 9.23249 19.7872 9.5056 19.9727 9.70696C20.1582 9.90832 20.4098 10.0214 20.6722 10.0214C20.9346 10.0214 21.1862 9.90832 21.3717 9.70696C21.5572 9.5056 21.6615 9.23249 21.6615 8.94772V4.65281C21.6615 3.41881 21.2098 2.23535 20.4059 1.36278C19.602 0.490206 18.5116 0 17.3747 0H13.4178ZM1.54686 12.8847C1.80922 12.8847 2.06084 12.9978 2.24636 13.1992C2.43188 13.4006 2.5361 13.6737 2.5361 13.9584V18.2534C2.5361 19.6363 3.57019 20.7587 4.84433 20.7587H8.8013C9.06367 20.7587 9.31528 20.8718 9.5008 21.0732C9.68632 21.2746 9.79055 21.5477 9.79055 21.8324C9.79055 22.1172 9.68632 22.3903 9.5008 22.5917C9.31528 22.793 9.06367 22.9062 8.8013 22.9062H4.84433C3.70743 22.9062 2.61708 22.416 1.81317 21.5434C1.00925 20.6708 0.557617 19.4874 0.557617 18.2534V13.9584C0.557617 13.6737 0.661841 13.4006 0.847359 13.1992C1.03288 12.9978 1.2845 12.8847 1.54686 12.8847ZM21.6615 13.9584C21.6615 13.6737 21.5572 13.4006 21.3717 13.1992C21.1862 12.9978 20.9346 12.8847 20.6722 12.8847C20.4098 12.8847 20.1582 12.9978 19.9727 13.1992C19.7872 13.4006 19.683 13.6737 19.683 13.9584V18.2534C19.683 18.9178 19.4398 19.5551 19.0069 20.0249C18.574 20.4948 17.9869 20.7587 17.3747 20.7587H13.4178C13.1554 20.7587 12.9038 20.8718 12.7183 21.0732C12.5328 21.2746 12.4285 21.5477 12.4285 21.8324C12.4285 22.1172 12.5328 22.3903 12.7183 22.5917C12.9038 22.793 13.1554 22.9062 13.4178 22.9062H17.3747C18.5116 22.9062 19.602 22.416 20.4059 21.5434C21.2098 20.6708 21.6615 19.4874 21.6615 18.2534V13.9584Z" fill="black"/>
</svg>
